<svg width="370.167" height="155.085" class="css-1j8o68f"><g fill="#292929"><path xmlns="http://www.w3.org/2000/svg" d="m29.751 69.238 2.8-12.855c0-.103 0-.31-.105-.414-.103-.104-.207-.208-.414-.208H8.915l-1.244-4.56a.996.996 0 0 0-.933-.726H1.037C.518 50.475 0 50.889 0 51.51c0 .519.415 1.037 1.037 1.037h4.872s5.805 21.043 5.909 21.147a2.76 2.76 0 0 0-.311 1.244c0 1.555 1.244 2.799 2.798 2.799s2.8-1.244 2.8-2.799c0-.311 0-.518-.104-.83h9.018c-.103.208-.103.519-.103.83a2.787 2.787 0 0 0 2.799 2.799 2.787 2.787 0 0 0 2.798-2.799c0-1.348-1.036-2.488-2.28-2.799-.104-.104-15.757-.104-15.757-.104l-.725-2.487h16.482c.207.103.415-.104.518-.311zm-1.036 4.664c.622 0 1.036.519 1.036 1.037 0 .622-.518 1.037-1.036 1.037a1.039 1.039 0 0 1-1.037-1.037c0-.622.518-1.037 1.037-1.037zm-14.41 0c.622 0 1.037.519 1.037 1.037 0 .622-.518 1.037-1.037 1.037a1.039 1.039 0 0 1-1.036-1.037c0-.622.518-1.037 1.036-1.037zM100.76 100.233c-.31-1.348-.31-3.525-.31-6.013 0-7.982.103-20.11-9.123-34.52l-5.598-8.81c-.933-1.556-2.488-2.592-4.25-3.007a6.585 6.585 0 0 0-5.183.933s-.104 0-.104.104c-.933.622-1.659 1.347-2.177 2.28a7.07 7.07 0 0 0-2.695-1.244c-1.866-.414-3.732-.103-5.287.933-.104 0-.104.104-.207.104-1.14.83-2.073 1.866-2.592 3.213-1.97-.933-4.354-.829-6.323.311-.104 0-.208.104-.311.104a6.598 6.598 0 0 0-2.073 2.073l-9.02-14.201c-1.036-1.659-2.798-2.903-4.768-3.318-1.97-.414-3.939-.103-5.701 1.037l-.104.104h-.103c-1.659 1.036-2.903 2.799-3.318 4.768-.414 1.97-.103 3.94 1.037 5.702l15.031 23.738c-.725.311-1.451.83-2.177 1.348-.31.207-.725.518-1.036.726-1.763 1.14-3.007 2.902-3.525 4.975s-.104 4.25 1.037 6.013l5.287 8.293c.103.104.207.31.31.415 6.324 8.81 14.202 11.091 19.49 12.646 1.45.415 2.694.83 3.627 1.244.208.104.311.104.519.104 2.488.518 3.213 1.762 4.56 3.94l.52.725c.414.622 1.036.933 1.761.933.415 0 .726-.104 1.14-.311.934-.622 1.245-1.866.623-2.8l-.415-.725c-1.451-2.384-3.006-4.872-7.153-5.805-1.14-.518-2.384-.83-3.939-1.244-5.39-1.555-12.647-3.732-18.348-12.75l-4.25-6.946a4 4 0 0 1-.519-2.902 3.636 3.636 0 0 1 1.659-2.385c.415-.31.83-.518 1.14-.829.726-.518 1.762-1.14 1.97-1.244l.414.415L56.393 88c.414.622 1.036.933 1.762.933.414 0 .725-.103 1.14-.31.933-.623 1.244-1.866.622-2.8l-6.116-9.64-17.623-27.678c-.518-.726-.622-1.659-.414-2.592.207-.933.725-1.658 1.555-2.176l.103-.104h.104c.726-.518 1.659-.622 2.591-.415.933.208 1.66.726 2.177 1.555l12.44 19.592 5.805 9.123c.415.622 1.037.933 1.762.933.415 0 .726-.104 1.14-.311.934-.622 1.245-1.866.623-2.8l-5.806-9.122c-.829-1.347-.414-3.11.933-4.042 1.348-.83 3.11-.415 4.043.933L69.04 68.2c.415.622 1.037.933 1.763.933.414 0 .725-.104 1.14-.311.933-.622 1.244-1.866.622-2.799l-5.08-7.671c-.414-.622-.518-1.451-.414-2.177.207-.726.622-1.451 1.244-1.866.622-.415 1.451-.518 2.177-.415.725.208 1.45.622 1.866 1.244l1.97 3.007 3.938 6.116c.415.622 1.037.933 1.763.933.414 0 .725-.104 1.14-.311.933-.622 1.244-1.866.622-2.8l-3.94-6.115a2.442 2.442 0 0 1-.31-2.074c.207-.725.622-1.347 1.14-1.658a2.442 2.442 0 0 1 2.073-.311c.726.207 1.348.622 1.659 1.14l5.598 8.811c8.604 13.477 8.5 24.88 8.5 32.343 0 2.903 0 5.183.415 6.946.207.933 1.036 1.555 1.97 1.555.207 0 .31 0 .518-.104.932-.207 1.658-1.348 1.347-2.384z"/></g><path fill="#292929" d="M182.102 93.084c1.89 0 3.653-.881 4.283-1.385v.756c-1.512.881-4.03 1.511-6.424 1.511-7.306 0-20.406-1.007-22.547-11.714-2.393 5.038-6.046 9.069-11.336 10.58-9.447 2.898-25.57 1.764-25.066-11.966.63-15.619 18.012-13.73 30.608-18.012 2.393-.882 4.157-1.763 5.416-2.771V48.495c0-10.707.63-18.768-8.565-18.768-8.188 0-13.352 2.897-15.241 6.801-1.764 4.031 2.267 5.669 3.275 9.195 1.007 3.401-1.764 7.18-6.172 6.298-3.78-.755-6.172-5.416-4.031-10.58 2.015-4.66 9.069-12.218 22.547-12.218 11.84 0 27.207 4.03 27.207 21.035v29.349c0 8.565.252 13.477 6.046 13.477zm-33.883-1.637c4.283-2.015 7.054-5.794 9.069-10.077-.126-.756-.252-1.511-.252-2.393V60.839c-1.134.755-2.771 1.511-4.786 2.267-6.172 2.267-13.352 3.4-14.108 14.863-.882 11.463 2.393 17.383 10.077 13.478zm143.638-39.048v25.822c0 10.329 1.26 13.856 7.936 13.856v.63h-34.765v-.63c6.676 0 7.81-3.653 7.935-13.856V50.006c0-8.565.504-19.524-8.565-19.524-5.794 0-11.462 5.039-14.611 11.967 1.007 2.897 1.511 6.172 1.511 9.95v25.822c0 10.203 1.134 13.856 7.936 13.856v.63h-34.891v-.63c6.802 0 7.935-3.653 7.935-13.856V50.006c0-8.565.63-19.524-8.439-19.524-5.038 0-10.077 3.653-12.974 9.321-.126 2.646-.252 38.418-.252 38.418.126 10.203 1.26 13.856 7.936 13.856v.63h-34.765v-.63c6.676 0 7.935-3.653 7.935-13.856v-33.38c0-10.202-1.26-13.729-7.935-13.729v-.63h28.97v.63c-.755.378-1.385 2.645-1.763 7.432 3.779-5.794 8.062-9.321 18.012-9.321s17.383 3.904 20.532 12.596c4.157-7.81 9.195-12.596 20.028-12.596 13.477 0 22.294 7.053 22.294 23.176zm34.18 25.822v.126c0 10.203 1.133 13.73 7.935 13.73v.63h-34.89v-.63c6.801 0 7.935-3.653 7.935-13.856v-33.38c0-10.202-1.134-13.729-7.936-13.729v-.63h28.971v.63c-1.134.63-2.015 6.172-2.015 18.894v28.215zm-9.573-57.564c-5.417 0-9.825-4.66-9.825-10.328 0-5.794 4.408-10.329 9.825-10.329 5.542 0 9.95 4.535 9.95 10.329 0 5.668-4.408 10.328-9.95 10.328zm48.16 72.302c2.52 0 4.661-.882 5.543-1.26v.63c-1.89 1.007-4.283 1.637-7.936 1.637-8.565 0-23.176-1.26-23.176-19.902V31.112h-5.794v-.63h5.794v-4.66c6.676 0 15.87-2.771 18.264-10.707h.63v15.367h11.21v.63h-11.21v45.472c0 8.439.63 16.375 6.676 16.375zM130.02 145.398c-4.661 0-8.273-1.836-9.02-5.771l4.863-1.372c.626 2.22 2.2 3.087 4.157 3.087 1.433 0 2.987-.444 2.946-2.079-.02-2.159-3.289-2.34-6.578-3.51-2.482-.868-4.863-2.2-4.863-5.691 0-4.258 3.531-6.215 8.132-6.215 4.036 0 7.406 1.533 8.213 5.488l-4.5 1.01c-.626-1.938-1.998-2.624-3.693-2.624-1.534 0-2.845.545-2.845 1.836 0 1.635 2.401 1.958 5.004 2.664 3.209.868 6.72 2.26 6.72 6.7 0 4.762-4.056 6.477-8.536 6.477zm22.283-21.55c4.641 0 7.426 2.582 7.426 7.769v13.378h-5.832v-12.43c0-3.047-1.695-4.056-3.773-4.056-2.16 0-4.52 1.07-4.56 5.045v11.441h-5.812V114h5.811v12.733c1.473-1.796 3.794-2.886 6.74-2.886zm19.7 21.55c-6.599 0-11.36-4.016-11.36-10.796 0-6.74 4.721-10.755 11.36-10.755 6.68 0 11.381 4.015 11.381 10.755 0 6.78-4.722 10.796-11.38 10.796zm-.06-4.62c3.37 0 5.67-2.463 5.67-6.176s-2.3-6.175-5.67-6.175c-3.25 0-5.53 2.462-5.53 6.175s2.28 6.175 5.53 6.175zm24.946-16.93c5.469 0 9.99 4.015 9.99 10.816s-4.521 10.816-9.99 10.816c-2.704 0-5.125-1.05-6.356-2.946v12.551h-5.812v-30.834h5.51l.16 2.785c1.15-2.059 3.673-3.189 6.498-3.189zm-1.311 16.808c3.047 0 5.489-2.22 5.489-5.993s-2.442-5.993-5.49-5.993c-3.107 0-5.528 2.36-5.528 5.993s2.421 5.993 5.529 5.993zm33.003-16.809c4.641 0 7.426 2.583 7.426 7.77v13.378h-5.832v-12.43c0-3.047-1.695-4.056-3.774-4.056-2.159 0-4.52 1.07-4.56 5.045v11.441h-5.812V114h5.812v12.733c1.473-1.796 3.794-2.886 6.74-2.886zm29.547 10.473-.061 1.392H242.69c.243 3.45 2.543 5.105 5.308 5.105 2.078 0 3.692-.968 4.48-2.804l5.327.787c-1.372 4.197-5.106 6.598-9.767 6.598-6.7 0-11.078-3.955-11.078-10.775s4.5-10.816 10.896-10.816c5.872 0 10.251 3.248 10.272 10.513zm-10.23-6.397c-2.644 0-4.48 1.23-5.045 3.995h9.524c-.302-2.643-2.098-3.995-4.48-3.995zm17.238-.384c1.049-1.836 3.773-3.531 6.78-3.531v5.186c-4.399 0-6.498 1.292-6.498 5.69v10.11h-5.852V124.25h5.57v3.29zm26.721 6.78-.06 1.393H276.42c.242 3.45 2.543 5.105 5.307 5.105 2.079 0 3.693-.968 4.48-2.804l5.327.787c-1.372 4.197-5.105 6.598-9.766 6.598-6.7 0-11.079-3.955-11.079-10.775s4.5-10.816 10.897-10.816c5.872 0 10.251 3.248 10.271 10.513zm-10.23-6.396c-2.643 0-4.48 1.23-5.045 3.995h9.525c-.303-2.643-2.098-3.995-4.48-3.995z"/></svg>